<svg width="127" height="54" viewBox="0 0 127 54" fill="none" xmlns="http://www.w3.org/2000/svg">
<path d="M5.53516 19.46H6.39516C7.38182 19.46 8.08849 19.3333 8.51516 19.08C8.94182 18.8267 9.15516 18.42 9.15516 17.86C9.15516 17.3 8.94182 16.8933 8.51516 16.64C8.08849 16.3867 7.38182 16.26 6.39516 16.26H5.53516V19.46ZM5.53516 13.34H6.25516C7.48182 13.34 8.09516 12.8533 8.09516 11.88C8.09516 10.9067 7.48182 10.42 6.25516 10.42H5.53516V13.34ZM1.61516 7.42H7.45516C8.84182 7.42 9.89516 7.75333 10.6152 8.42C11.3352 9.08667 11.6952 10.0467 11.6952 11.3C11.6952 12.06 11.5552 12.6933 11.2752 13.2C11.0085 13.6933 10.5952 14.1133 10.0352 14.46C10.5952 14.5667 11.0685 14.7333 11.4552 14.96C11.8552 15.1733 12.1752 15.44 12.4152 15.76C12.6685 16.08 12.8485 16.44 12.9552 16.84C13.0618 17.24 13.1152 17.6667 13.1152 18.12C13.1152 18.8267 12.9885 19.4533 12.7352 20C12.4952 20.5467 12.1485 21.0067 11.6952 21.38C11.2552 21.7533 10.7152 22.0333 10.0752 22.22C9.43516 22.4067 8.71516 22.5 7.91516 22.5H1.61516V7.42ZM21.3828 7.42V22.5H17.4628V7.42H21.3828ZM31.8331 19.18H38.1531V22.5H25.2531L32.3931 10.74H26.4531V7.42H38.9331L31.8331 19.18ZM48.5305 10.74V22.5H44.6105V10.74H41.3905V7.42H51.7505V10.74H48.5305ZM64.0741 10.74H59.4141V13.26H63.8141V16.58H59.4141V19.18H64.0741V22.5H55.4941V7.42H64.0741V10.74ZM79.7603 12.46C78.8536 11.3533 77.7336 10.8 76.4003 10.8C75.8136 10.8 75.267 10.9067 74.7603 11.12C74.267 11.3333 73.8403 11.6267 73.4803 12C73.1203 12.36 72.8336 12.7933 72.6203 13.3C72.4203 13.8067 72.3203 14.3533 72.3203 14.94C72.3203 15.54 72.4203 16.0933 72.6203 16.6C72.8336 17.1067 73.1203 17.5467 73.4803 17.92C73.8536 18.2933 74.287 18.5867 74.7803 18.8C75.2736 19.0133 75.807 19.12 76.3803 19.12C77.6336 19.12 78.7603 18.5867 79.7603 17.52V22.16L79.3603 22.3C78.7603 22.5133 78.2003 22.6667 77.6803 22.76C77.1603 22.8667 76.647 22.92 76.1403 22.92C75.1003 22.92 74.1003 22.7267 73.1403 22.34C72.1936 21.94 71.3536 21.3867 70.6203 20.68C69.9003 19.96 69.3203 19.1133 68.8803 18.14C68.4403 17.1533 68.2203 16.08 68.2203 14.92C68.2203 13.76 68.4336 12.7 68.8603 11.74C69.3003 10.7667 69.8803 9.93333 70.6003 9.24C71.3336 8.53333 72.1803 7.98667 73.1403 7.6C74.1003 7.2 75.107 7 76.1603 7C76.7603 7 77.347 7.06667 77.9203 7.2C78.507 7.32 79.1203 7.51333 79.7603 7.78V12.46ZM88.8047 13.24H94.4647V7.42H98.3847V22.5H94.4647V16.28H88.8047V22.5H84.8847V7.42H88.8047V13.24Z" fill="white"/>
<path d="M9.87563 36.28C9.44896 35.9333 9.02229 35.68 8.59563 35.52C8.16896 35.3467 7.75563 35.26 7.35563 35.26C6.84896 35.26 6.43563 35.38 6.11563 35.62C5.79563 35.86 5.63563 36.1733 5.63563 36.56C5.63563 36.8267 5.71563 37.0467 5.87563 37.22C6.03563 37.3933 6.24229 37.5467 6.49563 37.68C6.76229 37.8 7.05563 37.9067 7.37563 38C7.70896 38.0933 8.03563 38.1933 8.35563 38.3C9.63563 38.7267 10.569 39.3 11.1556 40.02C11.7556 40.7267 12.0556 41.6533 12.0556 42.8C12.0556 43.5733 11.9223 44.2733 11.6556 44.9C11.4023 45.5267 11.0223 46.0667 10.5156 46.52C10.0223 46.96 9.40896 47.3 8.67563 47.54C7.95563 47.7933 7.13563 47.92 6.21563 47.92C4.30896 47.92 2.54229 47.3533 0.915625 46.22L2.59563 43.06C3.18229 43.58 3.76229 43.9667 4.33563 44.22C4.90896 44.4733 5.47563 44.6 6.03563 44.6C6.67563 44.6 7.14896 44.4533 7.45563 44.16C7.77563 43.8667 7.93563 43.5333 7.93563 43.16C7.93563 42.9333 7.89563 42.74 7.81563 42.58C7.73563 42.4067 7.60229 42.2533 7.41563 42.12C7.22896 41.9733 6.98229 41.84 6.67563 41.72C6.38229 41.6 6.02229 41.4667 5.59563 41.32C5.08896 41.16 4.58896 40.9867 4.09563 40.8C3.61563 40.6 3.18229 40.34 2.79563 40.02C2.42229 39.7 2.11563 39.3 1.87563 38.82C1.64896 38.3267 1.53563 37.7067 1.53563 36.96C1.53563 36.2133 1.65563 35.54 1.89563 34.94C2.14896 34.3267 2.49563 33.8067 2.93563 33.38C3.38896 32.94 3.93563 32.6 4.57563 32.36C5.22896 32.12 5.95563 32 6.75563 32C7.50229 32 8.28229 32.1067 9.09563 32.32C9.90896 32.52 10.689 32.82 11.4356 33.22L9.87563 36.28ZM20.4453 39.34H21.7453C23.1853 39.34 23.9053 38.7133 23.9053 37.46C23.9053 36.2067 23.1853 35.58 21.7453 35.58H20.4453V39.34ZM20.4453 47.5H16.5253V32.42H22.7653C24.4586 32.42 25.752 32.86 26.6453 33.74C27.552 34.62 28.0053 35.86 28.0053 37.46C28.0053 39.06 27.552 40.3 26.6453 41.18C25.752 42.06 24.4586 42.5 22.7653 42.5H20.4453V47.5ZM40.66 35.74H36V38.26H40.4V41.58H36V44.18H40.66V47.5H32.08V32.42H40.66V35.74ZM56.3463 37.46C55.4396 36.3533 54.3196 35.8 52.9863 35.8C52.3996 35.8 51.8529 35.9067 51.3463 36.12C50.8529 36.3333 50.4263 36.6267 50.0663 37C49.7063 37.36 49.4196 37.7933 49.2063 38.3C49.0063 38.8067 48.9062 39.3533 48.9062 39.94C48.9062 40.54 49.0063 41.0933 49.2063 41.6C49.4196 42.1067 49.7063 42.5467 50.0663 42.92C50.4396 43.2933 50.8729 43.5867 51.3663 43.8C51.8596 44.0133 52.3929 44.12 52.9663 44.12C54.2196 44.12 55.3463 43.5867 56.3463 42.52V47.16L55.9463 47.3C55.3463 47.5133 54.7863 47.6667 54.2663 47.76C53.7463 47.8667 53.2329 47.92 52.7263 47.92C51.6863 47.92 50.6863 47.7267 49.7263 47.34C48.7796 46.94 47.9396 46.3867 47.2063 45.68C46.4863 44.96 45.9063 44.1133 45.4663 43.14C45.0263 42.1533 44.8063 41.08 44.8063 39.92C44.8063 38.76 45.0196 37.7 45.4463 36.74C45.8863 35.7667 46.4663 34.9333 47.1863 34.24C47.9196 33.5333 48.7663 32.9867 49.7263 32.6C50.6863 32.2 51.6929 32 52.7463 32C53.3463 32 53.9329 32.0667 54.5063 32.2C55.0929 32.32 55.7063 32.5133 56.3463 32.78V37.46ZM66.5461 35.74V47.5H62.6261V35.74H59.4061V32.42H69.7661V35.74H66.5461ZM77.4297 39.16H78.1697C78.943 39.16 79.5364 39 79.9497 38.68C80.363 38.36 80.5697 37.9 80.5697 37.3C80.5697 36.7 80.363 36.24 79.9497 35.92C79.5364 35.6 78.943 35.44 78.1697 35.44H77.4297V39.16ZM86.0497 47.5H81.1697L77.4297 41.7V47.5H73.5097V32.42H79.6097C80.4497 32.42 81.183 32.5467 81.8097 32.8C82.4364 33.04 82.9497 33.3733 83.3497 33.8C83.763 34.2267 84.0697 34.72 84.2697 35.28C84.483 35.84 84.5897 36.44 84.5897 37.08C84.5897 38.2267 84.3097 39.16 83.7497 39.88C83.203 40.5867 82.3897 41.0667 81.3097 41.32L86.0497 47.5ZM93.4727 32.42V40.62C93.4727 41.06 93.486 41.5133 93.5127 41.98C93.5527 42.4333 93.6527 42.8467 93.8127 43.22C93.986 43.5933 94.2527 43.9 94.6127 44.14C94.9727 44.3667 95.4793 44.48 96.1327 44.48C96.786 44.48 97.286 44.3667 97.6327 44.14C97.9927 43.9 98.2593 43.5933 98.4327 43.22C98.606 42.8467 98.706 42.4333 98.7327 41.98C98.7727 41.5133 98.7927 41.06 98.7927 40.62V32.42H102.693V41.16C102.693 43.5067 102.153 45.22 101.073 46.3C100.006 47.38 98.3593 47.92 96.1327 47.92C93.906 47.92 92.2527 47.38 91.1727 46.3C90.0927 45.22 89.5527 43.5067 89.5527 41.16V32.42H93.4727ZM107.181 47.5L109.741 32.42H113.621L116.641 40.46L119.641 32.42H123.521L126.081 47.5H122.181L120.881 38.82L117.321 47.5H115.761L112.381 38.82L111.081 47.5H107.181Z" fill="white"/>
</svg>
