<svg width="74" height="74" viewBox="0 0 74 74" fill="none" xmlns="http://www.w3.org/2000/svg">
<path d="M20.8125 57.8125H16.1875V55.5H27.75C29.0288 55.5 30.0625 54.4663 30.0625 53.1875V34.6875C30.0625 33.4087 29.0288 32.375 27.75 32.375C26.4712 32.375 25.4375 33.4087 25.4375 34.6875V50.875H13.875C12.5962 50.875 11.5625 51.9087 11.5625 53.1875V57.8125H6.9375C5.65869 57.8125 4.625 58.8462 4.625 60.125V69.375C4.625 70.6538 5.65869 71.6875 6.9375 71.6875H20.8125C22.0913 71.6875 23.125 70.6538 23.125 69.375V60.125C23.125 58.8462 22.0913 57.8125 20.8125 57.8125ZM18.5 67.0625H9.25V62.4375H18.5V67.0625Z" fill="#4F3489" stroke="#4F3489"/>
<path d="M43.9375 57.8125H39.3125V34.6875C39.3125 33.4087 38.2788 32.375 37 32.375C35.7212 32.375 34.6875 33.4087 34.6875 34.6875V57.8125H30.0625C28.7837 57.8125 27.75 58.8462 27.75 60.125V69.375C27.75 70.6538 28.7837 71.6875 30.0625 71.6875H43.9375C45.2163 71.6875 46.25 70.6538 46.25 69.375V60.125C46.25 58.8462 45.2163 57.8125 43.9375 57.8125ZM41.625 67.0625H32.375V62.4375H41.625V67.0625Z" fill="#4F3489" stroke="#4F3489"/>
<path d="M67.0625 57.8125H62.4375V53.1875C62.4375 51.9087 61.4038 50.875 60.125 50.875H48.5625V34.6875C48.5625 33.4087 47.5288 32.375 46.25 32.375C44.9712 32.375 43.9375 33.4087 43.9375 34.6875V53.1875C43.9375 54.4663 44.9712 55.5 46.25 55.5H57.8125V57.8125H53.1875C51.9087 57.8125 50.875 58.8462 50.875 60.125V69.375C50.875 70.6538 51.9087 71.6875 53.1875 71.6875H67.0625C68.3413 71.6875 69.375 70.6538 69.375 69.375V60.125C69.375 58.8462 68.3413 57.8125 67.0625 57.8125ZM64.75 67.0625H55.5V62.4375H64.75V67.0625Z" fill="#4F3489" stroke="#4F3489"/>
<path d="M13.875 46.25H20.8125C22.0913 46.25 23.125 45.2163 23.125 43.9375C23.125 42.6587 22.0913 41.625 20.8125 41.625H13.875C10.0501 41.625 6.9375 38.5124 6.9375 34.6875C6.9375 30.8626 10.0501 27.75 13.875 27.75C14.0299 27.75 14.1687 27.7477 14.319 27.7616C15.1076 27.8356 15.8383 27.5257 16.3286 26.9314C16.8188 26.3371 16.9807 25.5393 16.761 24.8016C16.3818 23.5204 16.1875 22.1792 16.1875 20.8125C16.1875 13.1604 22.4104 6.9375 30.0625 6.9375C37.7146 6.9375 43.9375 13.1604 43.9375 20.8125C43.9375 22.0913 44.9712 23.125 46.25 23.125C47.5288 23.125 48.5625 22.0913 48.5625 20.8125C48.5625 19.2284 48.3405 17.7022 47.9659 16.2361C48.1648 16.2222 48.3636 16.1875 48.5625 16.1875C53.6639 16.1875 57.8125 20.3361 57.8125 25.4375C57.8125 26.7163 58.8462 27.75 60.125 27.75C63.9499 27.75 67.0625 30.8626 67.0625 34.6875C67.0625 38.5124 63.9499 41.625 60.125 41.625H53.1875C51.9087 41.625 50.875 42.6587 50.875 43.9375C50.875 45.2163 51.9087 46.25 53.1875 46.25H60.125C66.5006 46.25 71.6875 41.0631 71.6875 34.6875C71.6875 29.0473 67.6268 24.3368 62.2779 23.3262C61.2558 16.6731 55.4954 11.5625 48.5625 11.5625C47.767 11.5625 46.9738 11.6434 46.1922 11.7822C43.0218 6.13737 36.9838 2.3125 30.0625 2.3125C19.8621 2.3125 11.5625 10.6121 11.5625 20.8125C11.5625 21.6566 11.618 22.4983 11.729 23.3239C6.37556 24.3321 2.3125 29.045 2.3125 34.6875C2.3125 41.0631 7.49944 46.25 13.875 46.25Z" fill="#4F3489" stroke="#4F3489"/>
</svg>
