<svg width="80" height="80" viewBox="0 0 80 80" fill="none" xmlns="http://www.w3.org/2000/svg">
<rect width="80" height="80" rx="16" fill="#E4E0ED"/>
<path d="M63.7852 38.4336C63.0674 37.7385 60.3692 35.829 55.789 40.4441L47.5854 48.7104C47.0972 49.2023 46.5536 49.5865 45.946 49.8668C46.124 49.4389 46.2224 48.9699 46.2224 48.4783C46.2224 46.5501 44.6477 44.9581 42.6375 44.8541C42.6023 44.8523 42.5672 44.8529 42.532 44.8558C39.5931 45.1017 36.5629 44.8428 34.1281 44.6351C33.2855 44.5632 32.4897 44.4952 31.82 44.4605C29.1573 44.3233 27.1999 45.9072 25.636 47.4756L22.5791 50.5415H15.7812C15.3498 50.5415 15 50.8913 15 51.3228V60.9931C15 61.2003 15.0823 61.3989 15.2288 61.5455C15.3753 61.692 15.574 61.7743 15.7812 61.7743L43.7763 61.7741C46.0007 61.7741 47.8875 60.9711 49.3844 59.3873L64.1143 43.7985C65.4174 42.4195 65.2605 39.8624 63.7852 38.4336ZM62.9785 42.7255L48.2488 58.3142C47.0588 59.5733 45.5541 60.2117 43.7764 60.2117L16.5625 60.2119V52.1041H22.9035C23.1111 52.1041 23.3102 52.0215 23.4567 51.8744L26.7427 48.5789C28.1298 47.1878 29.6968 45.9168 31.7393 46.0211C32.3829 46.0545 33.1302 46.1183 33.9954 46.1921C36.4734 46.4035 39.5537 46.6664 42.6057 46.4177C43.7803 46.5011 44.66 47.3793 44.66 48.4785C44.66 49.0363 44.4152 49.5914 44.0055 49.9791C43.5876 50.3744 43.1106 50.4844 42.5583 50.5416L32.0232 50.5417C31.5918 50.5417 31.242 50.8915 31.242 51.323C31.242 51.7544 31.5918 52.1042 32.0232 52.1042C32.0232 52.1042 42.5952 52.1041 42.5972 52.1042C43.0919 52.1042 43.597 52.0049 44.0895 51.9539C45.9482 51.7615 47.4545 51.0607 48.6945 49.8113L56.898 41.5451C59.3082 39.1166 61.4765 38.3732 62.6982 39.5563C63.5613 40.392 63.7002 41.9618 62.9785 42.7255ZM19.2969 39.1453C19.7283 39.1453 20.0781 38.7955 20.0781 38.3641V31.4579C20.0781 30.0992 21.5108 29.4457 22.7128 29.1367C25.4409 28.4352 28.2603 28.4357 31.0925 29.1384C32.074 29.3818 33.7207 30.0069 33.7207 31.4579V38.3641C33.7207 38.7955 34.0705 39.1453 34.502 39.1453C34.9334 39.1453 35.2832 38.7955 35.2832 38.3641V31.4579C35.2832 29.6213 33.8929 28.223 31.4687 27.6218C30.6288 27.4135 29.7898 27.2639 28.9532 27.169C30.2342 26.2638 31.1019 24.5408 31.1019 22.5671C31.1019 19.8893 29.4916 18.2257 26.8994 18.2257C24.3072 18.2257 22.697 19.8892 22.697 22.567C22.697 24.5364 23.5609 26.2563 24.8374 27.163C23.9935 27.2576 23.1548 27.4097 22.3237 27.6233C19.8681 28.2547 18.5156 29.6164 18.5156 31.4578V38.364C18.5156 38.7955 18.8654 39.1453 19.2969 39.1453ZM26.8994 19.7882C27.8854 19.7882 29.5394 20.1492 29.5394 22.5671C29.5394 24.6156 28.3551 26.2822 26.8994 26.2822C25.4437 26.2822 24.2595 24.6155 24.2595 22.567C24.2595 20.1492 25.9135 19.7882 26.8994 19.7882ZM22.7515 32.2642C23.1829 32.2642 23.5327 32.614 23.5327 33.0454V38.364C23.5327 38.7954 23.1829 39.1452 22.7515 39.1452C22.32 39.1452 21.9702 38.7954 21.9702 38.364V33.0454C21.9702 32.614 22.32 32.2642 22.7515 32.2642ZM31.0473 32.2642C31.4787 32.2642 31.8285 32.614 31.8285 33.0454V38.364C31.8285 38.7954 31.4787 39.1452 31.0473 39.1452C30.6158 39.1452 30.266 38.7954 30.266 38.364V33.0454C30.266 32.614 30.6157 32.2642 31.0473 32.2642ZM39.6266 39.1453C40.058 39.1453 40.4078 38.7955 40.4078 38.3641V31.4579C40.4078 30.0992 41.8405 29.4457 43.0426 29.1367C45.7706 28.4352 48.5898 28.4357 51.4222 29.1384C52.4037 29.3818 54.0504 30.0069 54.0504 31.4579V38.3641C54.0504 38.7955 54.4002 39.1453 54.8316 39.1453C55.2631 39.1453 55.6129 38.7955 55.6129 38.3641V31.4579C55.6129 29.6213 54.2226 28.223 51.7983 27.6218C50.9585 27.4134 50.1195 27.2639 49.2829 27.1689C50.5639 26.2637 51.4314 24.5407 51.4314 22.567C51.4314 19.8892 49.8212 18.2256 47.229 18.2256C44.6368 18.2256 43.0266 19.8891 43.0266 22.567C43.0266 24.5364 43.8905 26.2562 45.1669 27.163C44.3229 27.2576 43.4843 27.4097 42.6533 27.6233C40.1977 28.2546 38.8451 29.6164 38.8451 31.4578V38.364C38.8453 38.7955 39.1951 39.1453 39.6266 39.1453ZM47.2291 19.7882C48.215 19.7882 49.869 20.1492 49.869 22.5671C49.869 24.6156 48.6848 26.2822 47.2291 26.2822C45.7734 26.2822 44.5892 24.6156 44.5892 22.5671C44.5893 20.1492 46.2433 19.7882 47.2291 19.7882ZM43.0812 32.2642C43.5127 32.2642 43.8625 32.614 43.8625 33.0454V38.364C43.8625 38.7954 43.5127 39.1452 43.0812 39.1452C42.6498 39.1452 42.3 38.7954 42.3 38.364V33.0454C42.3 32.614 42.6497 32.2642 43.0812 32.2642ZM51.377 32.2642C51.8084 32.2642 52.1582 32.614 52.1582 33.0454V38.364C52.1582 38.7954 51.8084 39.1452 51.377 39.1452C50.9455 39.1452 50.5957 38.7954 50.5957 38.364V33.0454C50.5957 32.614 50.9455 32.2642 51.377 32.2642Z" fill="#4F3489"/>
</svg>
