<svg width="67" height="72" viewBox="0 0 67 72" fill="none" xmlns="http://www.w3.org/2000/svg">
<path d="M54.6667 32.656H10.3333C6.83553 32.656 4 35.5088 4 39.0279V61.3296C4 64.8487 6.83553 67.7015 10.3333 67.7015H54.6667C58.1645 67.7015 61 64.8487 61 61.3296V39.0279C61 35.5088 58.1645 32.656 54.6667 32.656Z" stroke="#4F3489" stroke-width="6" stroke-linecap="round" stroke-linejoin="round"/>
<path d="M16.6667 32.656V19.9122C16.6667 15.6873 18.3349 11.6356 21.3042 8.64814C24.2735 5.66073 28.3008 3.98242 32.5001 3.98242C36.6993 3.98242 40.7266 5.66073 43.6959 8.64814C46.6653 11.6356 48.3334 15.6873 48.3334 19.9122V32.656" stroke="#4F3489" stroke-width="6" stroke-linecap="round" stroke-linejoin="round"/>
</svg>
