<svg width="80" height="80" viewBox="0 0 80 80" fill="none" xmlns="http://www.w3.org/2000/svg">
<rect width="80" height="80" rx="16" fill="#E4E0ED"/>
<path d="M45.0049 59.3952H33.9953M43.6847 59.3952C43.6931 59.9496 43.5912 60.5002 43.3848 61.0149C43.1785 61.5295 42.8718 61.998 42.4827 62.393C42.0936 62.7881 41.6298 63.1018 41.1184 63.3159C40.6069 63.5301 40.0579 63.6403 39.5035 63.6403C38.949 63.6403 38.4 63.5301 37.8885 63.3159C37.3771 63.1018 36.9133 62.7881 36.5242 62.393C36.1351 61.998 35.8284 61.5295 35.6221 61.0149C35.4157 60.5002 35.3138 59.9496 35.3222 59.3952M33.9953 54.725C33.9953 51.1058 32.2395 47.7846 29.4453 45.4846C25.8395 42.5154 23.5684 37.9875 23.6703 32.9366C23.8357 24.6904 30.553 17.8 38.7934 17.4385C47.8655 17.0414 55.3337 24.2789 55.3337 33.2616C55.3337 38.1923 53.0809 42.5952 49.5482 45.4962C46.7539 47.7914 45.0049 51.1087 45.0049 54.725H33.9953Z" stroke="#4F3489" stroke-width="2" stroke-miterlimit="10" stroke-linecap="round" stroke-linejoin="round"/>
<path d="M39.5003 54.7251V35.9981M39.5003 35.9981H42.7695C43.5516 35.9981 44.3008 35.6874 44.8538 35.1344C45.4069 34.5813 45.7176 33.8312 45.7176 33.0491V32.7289C45.7173 31.9469 45.4065 31.1971 44.8535 30.6442C44.3005 30.0914 43.5505 29.7808 42.7685 29.7808H42.4493C41.6673 29.7808 40.9174 30.0914 40.3644 30.6442C39.8113 31.1971 39.5005 31.9469 39.5003 32.7289M39.5003 35.9981V32.7289M39.5003 35.9981H36.231C35.4489 35.9981 34.6998 35.6874 34.1467 35.1344C33.5937 34.5813 33.283 33.8312 33.283 33.0491V32.7289C33.2832 31.9469 33.594 31.1971 34.1471 30.6442C34.7001 30.0914 35.45 29.7808 36.232 29.7808H36.5512C37.3332 29.7808 38.0831 30.0914 38.6362 30.6442C39.1892 31.1971 39.5 31.9469 39.5003 32.7289" stroke="#4F3489" stroke-width="2" stroke-miterlimit="10" stroke-linecap="round" stroke-linejoin="round"/>
</svg>
