<svg width="76" height="74" viewBox="0 0 76 74" fill="none" xmlns="http://www.w3.org/2000/svg">
<g clip-path="url(#clip0_1_324)">
<path d="M29.125 15.625C31 14.875 32.125 12.625 31.375 10.75C31 8.87495 28.75 7.74995 26.875 8.12495C12.625 12.25 2.5 25.75 2.5 40.75C2.5 59.5 17.5 74.5 36.25 74.5C55 74.5 70 59.5 70 40.75C70 38.5 68.5 37 66.25 37C64 37 62.5 38.5 62.5 40.75C62.5 55.375 50.875 67 36.25 67C21.625 67 10 55.375 10 40.75C10 29.125 17.875 18.625 29.125 15.625Z" fill="#4F3489"/>
<path d="M47.5 0.250061C44.875 -0.124939 41.875 0.250061 39.625 2.12506C37.375 4.00006 36.25 6.62506 36.25 9.25006V28.7501C36.25 31.7501 37.75 34.3751 40 35.8751C41.5 37.0001 43.75 37.7501 46 37.7501C47.5 37.7501 49.375 37.3751 50.875 37.0001L67.375 31.0001C70 29.8751 72.25 28.0001 73 25.3751C73.75 22.7501 73.75 19.7501 72.25 17.5001C66.625 8.50006 57.625 2.12506 47.5 0.250061ZM65.875 22.7501C65.875 23.1251 65.5 23.5001 64.75 23.8751L48.25 29.8751C46.375 30.6251 44.875 30.2501 44.5 29.8751C43.75 29.8751 43.75 29.5001 43.75 29.1251V9.25006C43.75 8.50006 44.125 8.12506 44.5 7.75006C44.875 7.75006 45.25 7.37506 45.625 7.37506H46C54.25 8.87506 61.375 14.1251 65.5 21.2501C65.875 22.0001 65.875 22.7501 65.875 22.7501Z" fill="#4F3489"/>
</g>
<defs>
<clipPath id="clip0_1_324">
<rect width="76" height="74" fill="white"/>
</clipPath>
</defs>
</svg>
