<svg width="80" height="80" viewBox="0 0 80 80" fill="none" xmlns="http://www.w3.org/2000/svg">
<rect width="80" height="80" rx="16" fill="#E4E0ED"/>
<path d="M59.8774 37.3028C59.878 36.5286 59.6575 35.7703 59.242 35.1171C58.8265 34.4638 58.2332 33.9427 57.5318 33.6149C56.49 33.06 55.6923 32.1367 55.2947 31.0252L55.2133 30.8083C54.7518 29.706 54.6989 28.4752 55.0642 27.3373C55.2864 26.6284 55.3102 25.8721 55.133 25.1506C54.9558 24.429 54.5844 23.7698 54.059 23.2445C53.5337 22.7191 52.8745 22.3477 52.1529 22.1705C51.4314 21.9933 50.6751 22.0171 49.9662 22.2393C48.8284 22.6046 47.5975 22.5517 46.4952 22.0902L46.2783 21.9953C45.1651 21.6079 44.2399 20.8135 43.6886 19.7717C43.3617 19.0692 42.841 18.4746 42.1876 18.058C41.5343 17.6414 40.7756 17.42 40.0007 17.42C39.2258 17.42 38.4671 17.6414 37.8137 18.058C37.1604 18.4746 36.6397 19.0692 36.3128 19.7717C35.7627 20.8092 34.8434 21.6027 33.7367 21.9953L33.5062 22.0902C32.4039 22.5517 31.173 22.6046 30.0352 22.2393C29.3263 22.0171 28.57 21.9933 27.8485 22.1705C27.1269 22.3477 26.4677 22.7191 25.9424 23.2445C25.417 23.7698 25.0456 24.429 24.8684 25.1506C24.6912 25.8721 24.715 26.6284 24.9372 27.3373C25.3068 28.4736 25.2587 29.7044 24.8016 30.8083C24.7644 30.878 24.7326 30.9505 24.7067 31.0252C24.3091 32.1367 23.5114 33.06 22.4696 33.6149C21.767 33.9418 21.1725 34.4625 20.7559 35.1159C20.3392 35.7692 20.1179 36.528 20.1179 37.3028C20.1179 38.0777 20.3392 38.8364 20.7559 39.4898C21.1725 40.1431 21.767 40.6639 22.4696 40.9907C23.5105 41.5403 24.3085 42.4591 24.7067 43.5668C24.7325 43.6459 24.7642 43.723 24.8016 43.7973C25.229 44.8914 25.2578 46.1009 24.883 47.2141C24.6608 47.923 24.6369 48.6793 24.8141 49.4008C24.9913 50.1224 25.3628 50.7816 25.8881 51.3069C26.4135 51.8323 27.0727 52.2037 27.7942 52.3809C28.5157 52.5581 29.272 52.5343 29.981 52.3121C31.1162 51.9351 32.3496 51.9833 33.4519 52.4476L33.6824 52.5425C34.7908 52.9397 35.71 53.7379 36.2586 54.7797C36.5854 55.4822 37.1062 56.0768 37.7595 56.4934C38.4128 56.91 39.1716 57.1314 39.9465 57.1314C40.7213 57.1314 41.4801 56.91 42.1334 56.4934C42.7867 56.0768 43.3075 55.4822 43.6344 54.7797C44.1851 53.7345 45.1099 52.9356 46.224 52.5425L46.441 52.4476C47.5433 51.9833 48.7767 51.9351 49.9119 52.3121C50.6209 52.5343 51.3772 52.5581 52.0987 52.3809C52.8202 52.2037 53.4794 51.8323 54.0048 51.3069C54.5302 50.7816 54.9016 50.1224 55.0788 49.4008C55.256 48.6793 55.2322 47.923 55.0099 47.2141C54.6446 46.0762 54.6975 44.8454 55.1591 43.7431L55.2404 43.5126C55.6387 42.4049 56.4366 41.4861 57.4776 40.9365C58.1808 40.6205 58.7798 40.1112 59.2047 39.4679C59.6296 38.8245 59.8629 38.0737 59.8774 37.3028Z" stroke="#4F3489" stroke-width="1.8" stroke-miterlimit="10"/>
<path d="M32.8704 37.3706L37.5887 42.0754L47.1339 32.5302" stroke="#4F3489" stroke-width="1.8" stroke-linecap="round" stroke-linejoin="round"/>
<path d="M27.012 52.1222L23.1072 59.4167C23.0559 59.5146 23.0336 59.6252 23.0428 59.7354C23.052 59.8456 23.0924 59.9509 23.1592 60.0391C23.226 60.1272 23.3165 60.1945 23.4201 60.2332C23.5237 60.2718 23.6362 60.2802 23.7444 60.2573L29.2492 59.1184C29.3684 59.0926 29.4928 59.1049 29.6047 59.1536C29.7165 59.2022 29.8103 59.2848 29.8729 59.3895L31.6083 62.2639C31.659 62.3542 31.7328 62.4294 31.8222 62.4817C31.9116 62.5341 32.0132 62.5617 32.1168 62.5617C32.2203 62.5617 32.322 62.5341 32.4114 62.4817C32.5007 62.4294 32.5746 62.3542 32.6252 62.2639L36.3267 54.9017M52.5155 52.3256L56.3119 59.4302C56.3632 59.5282 56.3855 59.6388 56.3763 59.749C56.3671 59.8592 56.3267 59.9645 56.2599 60.0526C56.1931 60.1408 56.1026 60.2081 55.999 60.2467C55.8953 60.2854 55.7829 60.2937 55.6747 60.2708L50.1699 59.1319C50.0506 59.1062 49.9263 59.1185 49.8144 59.1671C49.7025 59.2158 49.6087 59.2983 49.5462 59.4031L47.8107 62.2775C47.7601 62.3678 47.6862 62.443 47.5969 62.4953C47.5075 62.5476 47.4058 62.5752 47.3023 62.5752C47.1987 62.5752 47.097 62.5476 47.0077 62.4953C46.9183 62.443 46.8445 62.3678 46.7938 62.2775L43.3636 55.4983" stroke="#4F3489" stroke-width="1.8" stroke-miterlimit="10"/>
</svg>
